<?xml version="1.0" encoding="UTF-8"?>
<svg id="Layer_2" data-name="Layer 2" xmlns="http://www.w3.org/2000/svg" xmlns:xlink="http://www.w3.org/1999/xlink" viewBox="0 0 65.2 64.84">
  <defs>
    <style>
      .cls-1 {
        fill: url(#linear-gradient-2);
      }

      .cls-2 {
        fill: url(#linear-gradient-3);
      }

      .cls-3 {
        fill: url(#linear-gradient);
      }
    </style>
    <linearGradient id="linear-gradient" x1="0" y1="44.74" x2="40.4" y2="44.74" gradientUnits="userSpaceOnUse">
      <stop offset="0" stop-color="#80f"/>
      <stop offset=".02" stop-color="#8500fb"/>
      <stop offset=".36" stop-color="#5808ba"/>
      <stop offset=".65" stop-color="#370e8b"/>
      <stop offset=".87" stop-color="#22126e"/>
      <stop offset="1" stop-color="#1b1464"/>
    </linearGradient>
    <linearGradient id="linear-gradient-2" x1="14.34" y1="21.35" x2="24.62" y2="21.35" xlink:href="#linear-gradient"/>
    <linearGradient id="linear-gradient-3" x1="9.42" y1="32.34" x2="65.2" y2="32.34" xlink:href="#linear-gradient"/>
  </defs>
  <g id="Layer_1-2" data-name="Layer 1">
    <g>
      <g>
        <path class="cls-3" d="m34.27,39.84h6.13v25H0v-25h4.56c.35-3.85,1.22-7.93,2.25-10.79.81-2.23,2.43-4.41,4.81-4.41,2.23,0,3.52,1.34,4.03,3.27l2.79,7.45,6.71.05c1.42,0,2.58,1.17,2.56,2.58,0,.15-.03.28-.05.43h4.48l2.23-11.63,2.3.43-2.41,12.61Z"/>
        <path class="cls-1" d="m19.48,26.49c2.84,0,5.14-2.3,5.14-5.14s-2.3-5.14-5.14-5.14-5.14,2.28-5.14,5.12,2.3,5.17,5.14,5.17Z"/>
      </g>
      <polygon class="cls-2" points="21.63 0 9.42 0 48.88 29.43 48.88 64.69 56.18 64.69 56.18 34.88 60.84 38.37 65.2 32.52 21.63 0"/>
    </g>
  </g>
</svg>